<svg width="30" height="30" viewBox="0 0 30 30" fill="none" xmlns="http://www.w3.org/2000/svg">
<path d="M30 15C30 23.281 23.281 30 15 30C6.71901 30 0 23.281 0 15C0 6.719 6.71901 0 15 0C23.281 0 30 6.719 30 15Z" fill="white"/>
<path d="M27.868 15.0003C27.868 22.0912 22.116 27.8681 15.0003 27.8681C7.88457 27.8681 2.13251 22.116 2.13251 15.0003C2.13251 7.88463 7.88457 2.13257 15.0003 2.13257C22.116 2.13257 27.868 7.90943 27.868 15.0003Z" fill="#ED1D24"/>
<path d="M22.7606 20.2318C22.7606 20.7525 22.3391 21.174 21.8184 21.174C21.2978 21.174 20.8763 20.7525 20.8763 20.2318C20.8763 19.7112 21.2978 19.2897 21.8184 19.2897C22.3639 19.2897 22.7606 19.7112 22.7606 20.2318Z" fill="white"/>
<path d="M11.1572 20.7513C10.1654 19.71 10.934 17.7017 11.1076 16.0158C10.8844 16.2389 8.77701 21.1728 6.84312 21.1728C6.81833 21.1728 6.76875 21.1728 6.74395 21.1728C4.98362 20.9992 5.20676 18.5695 5.75222 17.1067H8.57866C7.71089 19.5116 8.90098 18.5199 9.71916 17.0075C11.3555 13.6852 11.3803 13.6108 13.1654 8.60254H16.2894C15.3721 11.4538 14.5787 14.0075 14.2068 16.9579C14.2068 17.0571 14.2563 17.181 14.3803 17.1315C15.0249 17.0323 18.5208 9.14799 18.8431 8.60254H21.9671C21.9671 8.60254 18.6448 17.7761 19.1902 18.6439C19.463 19.1397 19.8349 18.1976 20.182 17.8257L20.6778 18.3216C19.7605 19.3381 18.7192 21.1976 17.2563 21.1976C17.1324 21.1976 17.0332 21.1728 16.9092 21.1728C16.6861 21.1232 16.463 20.9992 16.3142 20.8505C14.6282 19.3877 17.6778 13.9331 17.3555 13.586C17.2563 13.586 17.1572 13.8587 16.9836 14.2306C16.0663 16.1397 13.934 21.1976 12.1737 21.1976C11.8762 21.1728 11.4547 21.0736 11.1572 20.7513Z" fill="white"/>
</svg>
