<svg width="25" height="25" viewBox="0 0 25 25" fill="none" xmlns="http://www.w3.org/2000/svg">
<path d="M0 4.6875C0 2.09867 2.09867 0 4.6875 0H20.3125C22.9013 0 25 2.09867 25 4.6875V20.3125C25 22.9013 22.9013 25 20.3125 25H4.6875C2.09867 25 0 22.9013 0 20.3125V4.6875Z" fill="#78BD20"/>
<path d="M20.2523 6.69662C20.6271 4.64305 20.0505 3.21448 17.6866 3.21448H10.3352L9.64336 6.81567H15.8992C16.274 6.81567 16.3893 7.024 16.3316 7.47043L15.5244 11.7561H11.6325L12.2091 8.77995L3.21454 13.2442H9.90282L9.32624 16.2204L15.2361 13.3038L14.4578 17.53C14.3424 17.9466 14.1406 18.155 13.6794 18.155H7.4812L6.81814 21.7859H14.1983C16.5334 21.7859 17.6866 20.3573 18.0325 18.3038L20.2523 6.69662Z" fill="black"/>
</svg>
