<svg width="60" height="60" viewBox="0 0 60 60" fill="none" xmlns="http://www.w3.org/2000/svg">
<path d="M53.2655 6.73412C47.0649 1.23285 38.859 -4.92731e-07 31.205 -4.92731e-07H28.7763C20.8462 -4.92731e-07 12.585 1.34307 6.73416 6.73412C1.25101 12.9347 0 21.1592 0 28.8129V31.1683C0 39.08 1.34312 47.4148 6.73416 53.2655C12.9715 58.7855 21.2327 60 28.9235 60H31.0577C39.0063 60 47.378 58.6749 53.2655 53.2655C58.7855 47.0281 60 38.7488 60 31.0578V28.9236C60 20.9751 58.6749 12.6036 53.2655 6.73412Z" fill="#FBFCFD"/>
<path d="M29.9968 35.8923C27.2591 35.8923 25.0321 33.7151 25.0321 31.0386C25.0321 28.3623 27.2591 26.1847 29.9968 26.1847C32.7342 26.1847 34.9615 28.3623 34.9615 31.0386C34.9615 33.7151 32.7342 35.8923 29.9968 35.8923ZM26.6117 14.2764C26.6117 12.4515 28.1302 10.967 29.9968 10.967C31.8635 10.967 33.3819 12.4515 33.3819 14.2764C33.3819 16.1013 31.8635 17.5858 29.9968 17.5858C28.1302 17.5858 26.6117 16.1013 26.6117 14.2764ZM16.9103 26.8814C16.4556 28.2497 15.1627 29.1696 13.6927 29.1696C13.3383 29.1696 12.9857 29.1146 12.6446 29.0061C10.8695 28.4421 9.89465 26.5715 10.4717 24.8356C10.9266 23.4672 12.2202 22.548 13.6906 22.548C14.0445 22.548 14.3961 22.603 14.737 22.711C15.5967 22.9842 16.2964 23.5687 16.7071 24.3567C17.1174 25.1448 17.1898 26.0412 16.9103 26.8814ZM37.6696 31.0386C37.6696 27.2782 35.0486 24.2382 31.3519 23.7017V19.7307C33.9237 19.2179 35.6385 16.9403 35.6385 14.2764C35.6385 11.2349 33.1077 8.76061 29.9968 8.76061C26.8859 8.76061 24.3551 11.2349 24.3551 14.2764C24.3551 16.9403 26.5236 19.2179 29.0952 19.7307V23.7017C26.579 24.0668 24.2347 25.5514 23.1363 27.6992L19.2978 26.4797C19.4235 25.4138 19.2277 24.3346 18.7178 23.3559C18.0338 22.0427 16.8674 21.0682 15.4344 20.6131C14.8683 20.4327 14.2816 20.3414 13.6906 20.3414C11.2394 20.3414 9.08335 21.8737 8.32527 24.1539C7.36393 27.0465 8.98907 30.1645 11.9473 31.1045C12.5141 31.2842 13.1012 31.376 13.6927 31.376C15.7581 31.376 17.6106 30.2843 18.5967 28.5768L22.4382 29.7971C22.3687 30.2017 22.324 30.6147 22.324 31.0386C22.324 35.1753 25.7658 38.5401 29.9968 38.5401C34.2276 38.5401 37.6696 35.1753 37.6696 31.0386ZM49.3183 27.3603C48.9078 28.1487 48.2085 28.7328 47.3477 29.0061C47.0068 29.1142 46.6548 29.1693 46.3015 29.1693C44.8312 29.1693 43.5372 28.2497 43.0823 26.8814C42.5059 25.1459 43.4813 23.275 45.2562 22.711C45.5975 22.603 45.9495 22.548 46.3037 22.548C47.7732 22.548 49.0671 23.4677 49.5221 24.8364C49.801 25.6762 49.7288 26.5727 49.3183 27.3603ZM51.6687 24.1544C50.91 21.8737 48.754 20.3414 46.3037 20.3414C45.7129 20.3414 45.1259 20.4327 44.5591 20.6131C41.9678 21.4361 40.4 23.9303 40.6959 26.4805L39.1143 26.9832L39.8116 29.0815L41.3966 28.5776C42.3834 30.2846 44.2361 31.3756 46.3015 31.3756C46.8923 31.3756 47.4793 31.2842 48.0449 31.1045C49.4789 30.6492 50.6451 29.6753 51.3295 28.362C52.013 27.0491 52.1334 25.5548 51.6687 24.1544ZM42.0635 47.2767C41.4817 47.6899 40.795 47.9086 40.0778 47.9086C38.9953 47.9086 37.9701 47.3988 37.3355 46.5445C36.2383 45.0687 36.5742 42.9942 38.0839 41.9212C38.6669 41.5074 39.3536 41.289 40.0703 41.289C41.1524 41.289 42.1777 41.7991 42.8127 42.6538C43.9093 44.1301 43.5735 46.2046 42.0635 47.2767ZM40.0703 39.0824C39.2558 39.0824 38.4669 39.2555 37.7388 39.5806L36.7595 38.2631L34.9339 39.56L35.9113 40.8755C34.1391 42.7687 33.9085 45.6873 35.5098 47.8411C36.5677 49.265 38.2749 50.115 40.0778 50.115C41.2749 50.115 42.42 49.7505 43.3903 49.0615C45.9064 47.2747 46.4664 43.8184 44.6385 41.3569C43.5804 39.9327 41.8723 39.0824 40.0703 39.0824ZM22.6577 46.5445C22.0226 47.3994 20.9974 47.9095 19.9158 47.9095C19.1993 47.9095 18.5119 47.6902 17.9292 47.2764C16.4192 46.2041 16.0833 44.1301 17.1806 42.6538C17.8151 41.7994 18.8405 41.2896 19.9228 41.2896C20.6403 41.2896 21.327 41.5079 21.909 41.9217C23.419 42.9942 23.7547 45.0682 22.6577 46.5445ZM25.0587 39.5592L23.2331 38.2626L22.2539 39.5806C21.5259 39.2555 20.7369 39.0833 19.9228 39.0833C18.1203 39.0833 16.4127 39.9335 15.3547 41.3572C13.5266 43.8173 14.0864 47.2737 16.6026 49.0615C17.5736 49.751 18.719 50.1155 19.9158 50.1155C21.7173 50.1155 23.4245 49.2658 24.4833 47.8415C26.0851 45.6863 25.8541 42.7674 24.0815 40.8746L25.0587 39.5592Z" fill="url(#paint0_linear_1_558)"/>
<defs>
<linearGradient id="paint0_linear_1_558" x1="44.3925" y1="16.4499" x2="15.1669" y2="47.7905" gradientUnits="userSpaceOnUse">
<stop stop-color="#00B5CB"/>
<stop offset="1" stop-color="#2370E1"/>
</linearGradient>
</defs>
</svg>
